<?xml version="1.0" encoding="UTF-8"?>
<?xml-stylesheet href="/css/_svg.css" type="text/css"?>
<svg xmlns="http://www.w3.org/2000/svg" xmlns:xlink="http://www.w3.org/1999/xlink" version="1.1">
  <defs>
    <radialGradient id="grad_004" cx="8.5" cy="8.5" fx="8.5" fy="8.5" r="6.5625" gradientUnits="userSpaceOnUse">
      <stop offset="0" />
      <stop offset="1" />
    </radialGradient>
    <radialGradient id="grad_008" cx="8.5" cy="8.5" fx="8.5" fy="8.5" r="6.5625" gradientUnits="userSpaceOnUse">
      <stop offset="0" />
      <stop offset="1" />
    </radialGradient>
    <radialGradient id="grad_012" cx="8.5" cy="8.5" fx="8.5" fy="8.5" r="6.5625" gradientUnits="userSpaceOnUse">
      <stop offset="0" />
      <stop offset="1" />
    </radialGradient>
    <radialGradient id="grad_016" cx="8.5" cy="8.5" fx="8.5" fy="8.5" r="6.5625" gradientUnits="userSpaceOnUse">
      <stop offset="0" />
      <stop offset="1" />
    </radialGradient>
    <radialGradient id="grad_024" cx="8.5" cy="8.5" fx="8.5" fy="8.5" r="6.5625" gradientUnits="userSpaceOnUse">
      <stop offset="0" />
      <stop offset="1" />
    </radialGradient>
    <radialGradient id="grad_032" cx="8.5" cy="8.5" fx="8.5" fy="8.5" r="6.5625" gradientUnits="userSpaceOnUse">
      <stop offset="0" />
      <stop offset="1" />
    </radialGradient>
    <radialGradient id="grad_048" cx="8.5" cy="8.5" fx="8.5" fy="8.5" r="6.5625" gradientUnits="userSpaceOnUse">
      <stop offset="0" />
      <stop offset="1" />
    </radialGradient>
    <radialGradient id="grad_064" cx="8.5" cy="8.5" fx="8.5" fy="8.5" r="6.5625" gradientUnits="userSpaceOnUse">
      <stop offset="0" />
      <stop offset="1" />
    </radialGradient>
    <radialGradient id="grad_192" cx="8.5" cy="8.5" fx="8.5" fy="8.5" r="6.5625" gradientUnits="userSpaceOnUse">
      <stop offset="0" />
      <stop offset="1" />
    </radialGradient>
    <g id="beat1">
      <rect x="0" y="0" height="16" width="16" />
      <rect x="0" y="16" height="16" width="16" />
      <line x1="0" y1="0.1" x2="16" y2="0.1" />
    </g>
    <g id="beat2">
      <rect x="0" y="0" height="16" width="16" />
      <rect x="0" y="16" height="16" width="16" />
    </g>
    <g id="measure">
      <use x="0" y="0" xlink:href="#beat1" />
      <use x="0" y="32" xlink:href="#beat2" />
      <line x1="0.05" y1="0" x2="0.05" y2="64" />
      <line x1="15.95" y1="0" x2="15.95" y2="64" />
      
    </g>
    <g id="Larrow">
      <path d="m 1,8 7,7 2,-2 -3,-3 8,0 -2,-2 2,-2 -8,0 3,-3 -2,-2 z" />
      <path d="m 11,10 -2,-2 2,-2" />
      <path d="m 7,10 -2,-2 2,-2" />
    </g>
    <g id="Darrow">
      <path d="m 8,15 7,-7 -2,-2 -3,3 0,-8 -2,2 -2,-2 0,8 -3,-3 -2,2 z" />
      <path d="m 10,5 -2,2 -2,-2" />
      <path d="m 10,9 -2,2 -2,-2" />
    </g>
    <g id="Uarrow">
      <path d="m 8,1 -7,7 2,2 3,-3 0,8 2,-2 2,2 0,-8 3,3 2,-2 z" />
      <path d="m 6,11 2,-2 2,2" />
      <path d="m 6,7 2,-2 2,2" />
    </g>
    <g id="Rarrow">
      <path d="m 15,8 -7,-7 -2,2 3,3 -8,0 2,2 -2,2 8,0 -3,3 2,2 z" />
      <path d="m 5,6 2,2 -2,2" />
      <path d="m 9,6 2,2 -2,2" />
    </g>
    <g id="mine">
      <circle cx="8" cy="8" r="7" />
      <circle cx="8" cy="8" r="3.5"  />
    </g>
    <g id="hold_bdy">
      <rect x="1" y="0" width="14px" height="16px" />
      <line x1="1" y1="0" x2="1" y2="16" />
      <line x1="15" y1="0" x2="15" y2="16" />
    </g>
    <g id="roll_bdy">
      <rect x="1" y="0" width="14px" height="16px" />
      <line x1="1" y1="0" x2="1" y2="16" />
      <line x1="15" y1="0" x2="15" y2="16" />
    </g>
    <g id="hold_end">
      <path d="m 1,0 v 13 c 0,0 0,2 2,2 h 10 c 0,0 2,0 2,-2 v -13" />
    </g>
    <g id="roll_end">
      <path d="m 1,0 v 13 c 0,0 0,2 2,2 h 10 c 0,0 2,0 2,-2 v -13" />
    </g>
  </defs>
</svg>
