<?xml version="1.0" encoding="UTF-8"?>
<?xml-stylesheet href="/css/_svg.css" type="text/css"?>
<svg xmlns="http://www.w3.org/2000/svg" xmlns:xlink="http://www.w3.org/1999/xlink" version="1.1">
  <defs>
    <radialGradient id="grad_004" cx="8.5" cy="8.5" fx="8.5" fy="8.5" r="6.5625" gradientUnits="userSpaceOnUse">
      <stop offset="0" />
      <stop offset="1" />
    </radialGradient>
    <radialGradient id="grad_008" cx="8.5" cy="8.5" fx="8.5" fy="8.5" r="6.5625" gradientUnits="userSpaceOnUse">
      <stop offset="0" />
      <stop offset="1" />
    </radialGradient>
    <radialGradient id="grad_012" cx="8.5" cy="8.5" fx="8.5" fy="8.5" r="6.5625" gradientUnits="userSpaceOnUse">
      <stop offset="0" />
      <stop offset="1" />
    </radialGradient>
    <radialGradient id="grad_016" cx="8.5" cy="8.5" fx="8.5" fy="8.5" r="6.5625" gradientUnits="userSpaceOnUse">
      <stop offset="0" />
      <stop offset="1" />
    </radialGradient>
    <radialGradient id="grad_024" cx="8.5" cy="8.5" fx="8.5" fy="8.5" r="6.5625" gradientUnits="userSpaceOnUse">
      <stop offset="0" />
      <stop offset="1" />
    </radialGradient>
    <radialGradient id="grad_032" cx="8.5" cy="8.5" fx="8.5" fy="8.5" r="6.5625" gradientUnits="userSpaceOnUse">
      <stop offset="0" />
      <stop offset="1" />
    </radialGradient>
    <radialGradient id="grad_048" cx="8.5" cy="8.5" fx="8.5" fy="8.5" r="6.5625" gradientUnits="userSpaceOnUse">
      <stop offset="0" />
      <stop offset="1" />
    </radialGradient>
    <radialGradient id="grad_064" cx="8.5" cy="8.5" fx="8.5" fy="8.5" r="6.5625" gradientUnits="userSpaceOnUse">
      <stop offset="0" />
      <stop offset="1" />
    </radialGradient>
    <g width="16px" height="16px" id="DLarrow">
      <path id="arrowPath" d="m 1,2 v 12 c 0,0 0,1 1,1 h 12 c 0,0 1,0 1,-1 0,0 0,-1 -1,-1 H 7 L 15,5 V 2 C 15,2 15,1 14,1 H 11 L 3,9 V 2 C 3,2 3,1 2,1 2,1 1,1 1,2" />
      <line x1="15" y1="5" x2="11" y2="1" />
      <line x1="14" y1="6" x2="10" y2="2" />
    </g>
    <g width="16px" height="16px" id="URarrow">
      <path id="arrowPath" d="M 15,14 V 2 C 15,2 15,1 14,1 H 2 C 2,1 1,1 1,2 1,2 1,3 2,3 h 7 l -8,8 v 3 c 0,0 0,1 1,1 h 3 l 8,-8 v 7 c 0,0 0,1 1,1 0,0 1,0 1,-1" />
      <line x1="1" y1="11" x2="5" y2="15" />
      <line x1="2" y1="10" x2="6" y2="14" />
    </g>
    <g width="16px" height="16px" id="mine">
      <circle cx="8" cy="8" r="7" />
      <circle cx="8" cy="8" r="3.5"  />
    </g>
    <g width="16px" height="16px" id="hold_bdy">
      <rect x="1" y="0" width="14px" height="16px" />
      <line x1="1" y1="0" x2="1" y2="16" />
      <line x1="15" y1="0" x2="15" y2="16" />
    </g>
    <g width="16px" height="16px" id="roll_bdy">
      <rect x="1" y="0" width="14px" height="16px" />
      <line x1="1" y1="0" x2="1" y2="16" />
      <line x1="15" y1="0" x2="15" y2="16" />
    </g>
    <g width="16px" height="16px" id="hold_end">
      <path d="m 1,1 v 12 c 0,0 0,2 2,2 h 10 c 0,0 2,0 2,-2 v -12" />
    </g>
    <g width="16px" height="16px" id="roll_end">
      <path d="m 1,0 v 13 c 0,0 0,2 2,2 h 10 c 0,0 2,0 2,-2 v -13" />
    </g>
  </defs>
  
  <use x="0" y="0" xlink:href="#DLarrow" style="fill:url(#grad_008);" id="use12" />
  <use x="16" y="16" xlink:href="#URarrow" style="fill:url(#grad_024);" />
  <svg
     width="16"
     height="16"
     x="0"
     y="16">
    <use xlink:href="#DLarrow" transform="rotate(90 8 8)" style="fill:url(#grad_004);" id="use18" />
  </svg>
  <use x="16" y="0" xlink:href="#mine"  />
  
</svg>
