<?xml version="1.0" encoding="UTF-8"?>
<?xml-stylesheet href="/css/_svg.css" type="text/css"?>
<svg xmlns="http://www.w3.org/2000/svg" xmlns:xlink="http://www.w3.org/1999/xlink" version="1.1">
  <defs>
    <radialGradient id="grad_004" cx="8.5" cy="8.5" fx="8.5" fy="8.5" r="6.5625" gradientUnits="userSpaceOnUse">
      <stop offset="0" />
      <stop offset="1" />
    </radialGradient>
    <radialGradient id="grad_008" cx="8.5" cy="8.5" fx="8.5" fy="8.5" r="6.5625" gradientUnits="userSpaceOnUse">
      <stop offset="0" />
      <stop offset="1" />
    </radialGradient>
    <radialGradient id="grad_012" cx="8.5" cy="8.5" fx="8.5" fy="8.5" r="6.5625" gradientUnits="userSpaceOnUse">
      <stop offset="0" />
      <stop offset="1" />
    </radialGradient>
    <radialGradient id="grad_016" cx="8.5" cy="8.5" fx="8.5" fy="8.5" r="6.5625" gradientUnits="userSpaceOnUse">
      <stop offset="0" />
      <stop offset="1" />
    </radialGradient>
    <radialGradient id="grad_024" cx="8.5" cy="8.5" fx="8.5" fy="8.5" r="6.5625" gradientUnits="userSpaceOnUse">
      <stop offset="0" />
      <stop offset="1" />
    </radialGradient>
    <radialGradient id="grad_032" cx="8.5" cy="8.5" fx="8.5" fy="8.5" r="6.5625" gradientUnits="userSpaceOnUse">
      <stop offset="0" />
      <stop offset="1" />
    </radialGradient>
    <radialGradient id="grad_048" cx="8.5" cy="8.5" fx="8.5" fy="8.5" r="6.5625" gradientUnits="userSpaceOnUse">
      <stop offset="0" />
      <stop offset="1" />
    </radialGradient>
    <radialGradient id="grad_064" cx="8.5" cy="8.5" fx="8.5" fy="8.5" r="6.5625" gradientUnits="userSpaceOnUse">
      <stop offset="0" />
      <stop offset="1" />
    </radialGradient>
    <g id="beat2">
      <rect x="0" y="0" height="16" width="16" />
      <rect x="0" y="16" height="16" width="16" />
      <line x1="0" y1="0" x2="0" y2="32" />
      <line x1="16" y1="0" x2="16" y2="32" />
    </g>
    <g id="measure">
      <use x="0" y="0" xlink:href="#beat2" />
      <use x="0" y="32" xlink:href="#beat2" />
      <line x1="0" y1="0" x2="16" y2="0" />
    </g>
    <g id="DLarrow">
      <path d="m 1,2 v 12 c 0,0 0,1 1,1 h 12 c 0,0 1,0 1,-1 0,0 0,-1 -1,-1 H 7 L 15,5 V 2 C 15,2 15,1 14,1 H 11 L 3,9 V 2 C 3,2 3,1 2,1 2,1 1,1 1,2" />
      <line x1="15" y1="5" x2="11" y2="1" />
      <line x1="14" y1="6" x2="10" y2="2" />
    </g>
    <g id="ULarrow">
      <path d="M 1,14 V 2 C 1,2 1,1 2,1 h 12 c 0,0 1,0 1,1 0,0 0,1 -1,1 H 7 l 8,8 v 3 c 0,0 0,1 -1,1 H 11 L 3,6 v 8 c 0,0 0,1 -1,1 0,0 -1,0 -1,-1" />
      <line x1="15" y1="11" x2="11" y2="15" />
      <line x1="14" y1="10" x2="10" y2="14" />
    </g>
    <g id="CNarrow">
      <path d="m 1,2 v 12 l 1,1 h 12 l 1,-1 V 2 L 14,1 H 2 z" />
      <rect x="4" y="6" height="4" width="2" rx="0.5" />
      <rect x="10" y="6" height="4" width="2" rx="0.5" />
    </g>
    <g id="URarrow">
      <path d="M 15,14 V 2 C 15,2 15,1 14,1 H 2 C 2,1 1,1 1,2 1,2 1,3 2,3 h 7 l -8,8 v 3 c 0,0 0,1 1,1 h 3 l 8,-8 v 7 c 0,0 0,1 1,1 0,0 1,0 1,-1" />
      <line x1="1" y1="11" x2="5" y2="15" />
      <line x1="2" y1="10" x2="6" y2="14" />
    </g>
    <g id="DRarrow">
      <path d="m 15,2 v 12 c 0,0 0,1 -1,1 H 2 c 0,0 -1,0 -1,-1 0,0 0,-1 1,-1 H 9 L 1,5 V 2 C 1,2 1,1 2,1 h 3 l 8,8 V 2 c 0,0 0,-1 1,-1 0,0 1,0 1,1" />
      <line x1="1" y1="5" x2="5" y2="1" />
      <line x1="2" y1="6" x2="6" y2="2" />
    </g>
    <g id="mine">
      <circle cx="8" cy="8" r="7" />
      <circle cx="8" cy="8" r="3.5"  />
    </g>
    <g id="hold_bdy">
      <rect x="1" y="0" width="14px" height="16px" />
      <line x1="1" y1="0" x2="1" y2="16" />
      <line x1="15" y1="0" x2="15" y2="16" />
    </g>
    <g id="roll_bdy">
      <rect x="1" y="0" width="14px" height="16px" />
      <line x1="1" y1="0" x2="1" y2="16" />
      <line x1="15" y1="0" x2="15" y2="16" />
    </g>
    <g id="hold_end">
      <path d="m 1,1 v 12 c 0,0 0,2 2,2 h 10 c 0,0 2,0 2,-2 v -12" />
    </g>
    <g id="roll_end">
      <path d="m 1,0 v 13 c 0,0 0,2 2,2 h 10 c 0,0 2,0 2,-2 v -13" />
    </g>
  </defs>
</svg>
